<svg width="120" height="125" viewBox="0 0 120 125" fill="none" xmlns="http://www.w3.org/2000/svg">
<g id="Frame" clip-path="url(#clip0_463_1118)">
<path id="Vector" d="M-27.3418 66.1844C-18.683 63.1496 -10.0174 60.2216 -1.50044 56.7984C6.87848 53.4067 14.8719 49.1349 22.3469 44.0539C36.5747 34.3454 49.1608 22.1264 64.683 14.3267C72.4209 10.2331 80.9654 7.88687 89.7215 7.45147C89.8649 7.46164 90.0019 7.5164 90.1134 7.60818C90.2249 7.69996 90.3053 7.82421 90.3435 7.96354C90.3816 8.10288 90.3755 8.25039 90.3262 8.38557C90.2768 8.52076 90.1866 8.63688 90.068 8.71775L67.4362 19.5709C59.8933 23.2064 52.5115 27.0257 44.8795 30.602C43.8082 31.2205 42.7692 29.4686 43.9091 28.9212C51.44 25.2649 59.0973 21.9229 66.7053 18.3051L89.3971 7.55573C89.6008 7.90848 89.619 8.36829 89.7316 8.80127C73.0153 9.15625 58.5029 18.7524 46.0618 29.034C39.2024 34.7096 32.5486 40.5986 25.3072 45.8031C18.0932 50.9004 10.3208 55.1558 2.1393 58.4874C-7.30543 62.2966 -16.9674 65.5469 -26.7973 68.2218C-28.0449 68.5825 -28.5176 66.6696 -27.3058 66.2467L-27.3418 66.1844Z" fill="black" fill-opacity="0.1"/>
<path id="Vector_2" d="M-25.67 65.6066C-11.4784 63.6382 0.526197 53.8853 15.2954 54.8205C22.4405 55.5564 29.4715 57.1853 36.2247 59.6692C43.3156 62.0076 50.2679 64.7558 57.0466 67.9001C64.6581 71.5092 72.0618 75.5482 79.2218 79.9977C79.3892 80.0992 79.5199 80.252 79.5944 80.4334C79.6688 80.6148 79.683 80.8151 79.635 81.0045C79.5869 81.1939 79.4791 81.3623 79.3275 81.4846C79.176 81.6069 78.9889 81.6767 78.794 81.6834C71.2082 81.581 63.4164 81.5975 56.6075 77.8925C49.7986 74.1875 44.8806 67.62 38.0889 63.8497C37.9055 63.7465 37.77 63.5746 37.7122 63.3719C37.6544 63.1692 37.6791 62.9522 37.7808 62.7688C37.8825 62.5853 38.0529 62.4503 38.2545 62.3936C38.4562 62.3369 38.6725 62.363 38.8559 62.4662C45.3716 66.0915 50.5707 71.5283 56.9662 75.2784C63.3616 79.0284 71.3274 79.7415 78.8753 79.9211C78.7288 80.4761 78.5616 81.0429 78.427 81.6187C72.1923 77.848 65.7298 74.473 59.0779 71.5138C52.3294 68.4027 45.4112 65.6812 38.3572 63.3628C31.6367 60.938 24.7085 59.1487 17.6636 58.0183C10.6772 57.2432 3.6177 58.1425 -2.93453 60.6422C-10.2906 63.1738 -17.5312 66.5241 -25.3905 66.9946C-26.1557 67.0491 -26.3427 65.7737 -25.5809 65.6659L-25.67 65.6066Z" fill="black" fill-opacity="0.1"/>
<path id="Vector_3" d="M7.168 54.5884C13.4143 56.318 19.7811 57.5631 26.2118 58.3124C32.1803 58.8545 38.1909 58.3952 43.9966 56.9532C54.7718 54.3012 64.7869 49.2383 75.5348 46.4914C81.3765 44.8708 87.487 44.4269 93.515 45.1853L93.0289 46.9601C77.4778 42.7901 60.9804 44.4454 46.6285 51.6156C42.5526 53.64 38.7326 56.1427 35.2481 59.0715C35.1351 59.1913 34.9976 59.285 34.8448 59.3462C34.692 59.4075 34.5276 59.4348 34.3629 59.4263C34.1983 59.4177 34.0371 59.3735 33.8906 59.2968C33.7441 59.2201 33.6156 59.1127 33.514 58.9818C33.4123 58.8508 33.34 58.6995 33.3019 58.5383C33.2637 58.3771 33.2607 58.2098 33.293 58.0477C33.3253 57.8857 33.3922 57.7328 33.489 57.5995C33.5859 57.4662 33.7104 57.3557 33.8541 57.2755C46.9344 47.1916 63.1798 42.1056 79.7084 42.9198C84.3594 43.1728 88.9746 43.9112 93.4791 45.1231C94.652 45.4419 94.1352 47.0683 92.9929 46.8978C81.7157 45.3023 70.8217 49.4615 60.4788 53.3856C50.1358 57.3098 39.2012 61.1605 27.7069 60.1882C20.6207 59.3724 13.6168 57.9255 6.77855 55.8646C5.91081 55.6463 6.26431 54.3078 7.13206 54.5261L7.168 54.5884Z" fill="black" fill-opacity="0.1"/>
<path id="Vector_4" d="M-26.7474 66.1184C-21.8021 64.824 -16.6223 64.671 -11.5955 65.6706C-6.33976 66.5569 -1.16643 67.8928 3.86772 69.6635C15.2414 73.4721 26.8058 77.0875 37.8059 81.9142C43.6273 84.2785 49.0972 87.4433 54.0578 91.3172C54.6198 91.7674 53.8365 92.5516 53.295 92.0896C48.8893 88.6604 44.0193 85.8815 38.8343 83.8381C33.6838 81.721 28.2871 80.2717 23.0178 78.4722L5.87604 72.5711C1.07337 70.8519 -3.82544 69.4211 -8.79425 68.2863C-11.6587 67.6455 -14.573 67.2632 -17.5022 67.1442C-20.4143 67.1316 -23.3207 67.3658 -26.1905 67.8443C-26.4042 67.8751 -26.6223 67.8259 -26.8033 67.7062C-26.9842 67.5865 -27.1155 67.4046 -27.1721 67.1949C-27.2288 66.9853 -27.2069 66.7625 -27.1106 66.5689C-27.0142 66.3754 -26.8502 66.2245 -26.6497 66.1449L-26.7474 66.1184Z" fill="black" fill-opacity="0.1"/>
</g>
<defs>
<clipPath id="clip0_463_1118">
<rect width="132.34" height="66.6102" fill="white" transform="matrix(-0.866025 0.5 0.5 0.866025 86.1641 0.624023)"/>
</clipPath>
</defs>
</svg>
