<svg width="168" height="265" viewBox="0 0 168 265" fill="none" xmlns="http://www.w3.org/2000/svg">
<path d="M73.4675 260.979C74.7425 257.637 76.7348 254.616 79.304 252.13C81.8732 249.644 84.9567 247.753 88.3374 246.59C90.5873 245.812 92.726 244.627 94.9056 243.641C92.9091 242.708 90.7464 242.185 88.5456 242.104C83.3395 241.918 78.411 239.696 74.8193 235.914C74.1182 234.855 73.6487 233.66 73.4417 232.407C73.2348 231.154 73.2951 229.872 73.6186 228.645C74.2714 226.258 77.0951 227.332 78.8899 228.082C84.7112 230.401 91.0986 232.072 96.1014 235.633C102.656 240.382 109.807 240.371 117.042 241.279C105.518 236.245 95.8499 227.733 89.3912 216.934C87.9304 214.404 86.318 214.441 84.024 215.443C78.5639 217.78 72.3996 217.865 66.871 215.678C61.3425 213.491 56.8965 209.209 54.4994 203.764C53.9664 202.584 53.7348 200.51 54.4123 199.796C54.9982 199.415 55.6569 199.161 56.3467 199.049C57.0365 198.937 57.7422 198.969 58.4192 199.145C62.1616 199.837 65.8551 200.83 69.5613 201.716L70.2483 201.791L69.6396 201.423C69.0255 200.635 68.3508 199.897 67.6217 199.215C62.7602 194.881 59.2802 189.211 57.6162 182.914C57.427 181.469 57.4941 180.003 57.8146 178.582C59.0155 178.733 60.3954 178.506 61.3773 179.006C68.1908 182.205 74.1801 186.929 78.8821 192.812C77.8954 188.633 77.2231 184.386 76.8707 180.107C76.7988 173.713 74.7563 167.494 71.0221 162.3C69.0026 158.682 67.1695 154.963 65.5301 151.158C65.0253 150.283 63.5131 149.122 62.7742 149.301C48.4358 152.816 37.1389 144.53 24.9786 139.594C22.4001 138.602 22.4774 136.077 25.0755 134.701C27.2276 133.507 29.5966 132.755 32.0441 132.488C41.6177 131.891 51.1645 134.07 59.5394 138.766C57.8442 133.642 55.9524 129.079 54.8287 124.345C53.3373 117.987 52.8487 111.522 55.9648 105.382C57.4163 102.535 59.6105 101.789 61.4145 103.798C63.7103 106.186 65.6376 108.902 67.1326 111.858C69.087 116.106 70.1688 120.702 70.3138 125.374C70.4588 130.046 69.664 134.698 67.9766 139.054C67.1731 141.043 66.9036 143.208 67.195 145.335C68.7274 152.007 71.6223 158.291 75.6974 163.793C76.9015 156.871 77.906 150.462 79.2358 144.187C81.7612 132.802 85.9795 121.863 91.7498 111.735C92.4909 110.643 92.8786 109.35 92.8603 108.029C92.842 106.709 92.4186 105.425 91.6476 104.352C89.5685 101.137 87.8129 97.7104 85.7896 94.4632C80.9158 86.5362 75.5873 79.1942 65.0628 78.7217C64.7287 78.6868 64.4022 78.599 64.0955 78.4616C57.5603 76.343 52.0555 71.845 48.6726 65.8594C47.1689 63.2548 48.2926 61.3409 51.2478 61.0983C52.2382 61.129 53.2216 61.2773 54.1773 61.5402C61.9719 63.1174 69.385 65.535 74.9772 70.8892C75.2975 66.6236 75.8843 62.3827 76.7341 58.1913C77.1697 56.5011 79.5693 55.3389 81.0895 53.9403C82.5147 55.135 83.71 56.5803 84.6163 58.2047C86.9759 65.7229 87.2355 73.1636 82.7616 80.2117C82.4627 80.8486 82.3172 81.547 82.3365 82.2509C82.3559 82.9548 82.5397 83.6445 82.8732 84.265C86.6845 90.5233 90.708 96.6344 94.75 102.735C94.9326 103.051 96.6164 102.922 96.7083 102.695C98.8091 96.7695 101.762 90.9469 102.574 84.8473C104.04 73.5329 98.1137 64.8986 90.0285 57.5855C78.4647 47.121 56.8309 40.6596 41.8022 51.6434C40.0847 52.8062 38.7418 54.4433 37.9362 56.356C36.4827 60.0448 34.4377 63.4709 31.8817 66.4995C27.1663 71.3341 22.1989 75.916 17.0003 80.2261C15.8878 81.2157 13.7491 82.4008 12.8474 81.9541C12.1146 81.4792 11.4856 80.8603 10.9988 80.135C10.5119 79.4097 10.1773 78.5932 10.0153 77.735C9.59211 75.0184 9.77292 72.2428 10.5449 69.606C11.3168 66.9693 12.6608 64.5364 14.4811 62.4809C18.2084 57.6995 23.5616 55.477 28.8768 53.1028L29.1182 52.9635L28.8768 53.1028L22.9138 53.1969C19.0069 53.3167 15.1254 52.513 11.5844 50.8509C8.04327 49.1888 4.9423 46.7151 2.53311 43.6306C-1.0562 39.1294 0.375798 36.1197 6.04482 35.7738C10.2104 35.4251 14.4012 35.4988 18.5532 35.9938C26.6704 37.1863 34.1303 39.8994 37.7717 48.2651C38.6229 50.2542 39.7071 49.4298 40.8663 48.7357C53.2364 41.2962 65.9763 41.5313 78.972 46.9273C81.3081 47.8855 83.6286 48.9023 85.9383 49.9006C85.5575 49.2407 85.0908 48.6342 84.5504 48.0972C75.5583 40.8859 66.755 33.144 54.8975 30.6629C45.8346 28.7761 39.9604 22.4189 34.8516 15.3717C33.8974 14.0621 34.4438 11.663 34.2902 9.76722C35.8617 9.62962 37.4446 9.69088 39.0014 9.94954C48.3607 12.6193 57.0287 17.2991 64.4011 23.6628C64.2388 21.6232 64.0325 19.8075 63.9404 17.9754C63.4845 12.6163 65.054 7.2841 68.3387 3.03314C71.5057 -1.00305 75.2669 -0.793227 76.5597 3.71919C78.1635 9.26451 79.1639 14.9662 79.5435 20.7249C79.7377 22.9889 79.3673 25.2648 78.4655 27.3485C77.5636 29.4321 76.1586 31.2583 74.3766 32.6629C71.7577 34.6462 72.4874 35.2668 74.668 36.5132C76.7174 37.6052 78.6359 38.9278 80.386 40.4552C84.4175 44.082 88.2335 47.9418 91.8144 52.0149C94.4589 55.4989 96.8854 59.1431 99.0801 62.9268C99.6562 60.3317 99.9272 57.6777 99.8878 55.0187C100.698 44.9265 105.091 41.2986 111.78 39.0739C115.483 37.8536 116.729 39.0689 116.441 42.8573C115.48 52.5159 112.98 61.525 104.958 67.9176C103.757 68.8836 103.337 69.3992 104.043 71.0506C105.631 74.5511 106.481 78.3412 106.539 82.1834C106.597 86.0256 105.862 89.8372 104.38 93.3796C101.182 101.179 97.4533 108.789 93.6954 116.391C89.6276 124.05 86.6849 132.257 84.958 140.76C87.7375 139.362 90.3167 137.598 92.6267 135.514C98.7437 129.725 104.387 123.415 110.804 117.974C112.602 116.684 113.956 114.868 114.681 112.775C115.406 110.682 115.465 108.415 114.852 106.285C113.822 101.266 113.271 96.1602 113.205 91.0377C113.254 88.2016 113.864 85.4042 115 82.8071C116.135 80.2099 117.774 77.8644 119.822 75.9062C122.501 73.1689 124.851 73.7222 126.186 77.193C126.503 78.1353 126.739 79.1031 126.89 80.0856C128.627 89.3465 127.645 98.9088 124.064 107.615L129.132 105.929C135.107 103.968 141.123 102.851 146.999 105.908C147.835 106.292 148.579 106.851 149.182 107.547C149.785 108.243 150.232 109.06 150.492 109.943C150.3 110.871 149.906 111.745 149.337 112.502C148.768 113.259 148.039 113.881 147.202 114.324C143.29 116.517 138.981 117.91 134.524 118.423C130.067 118.935 125.552 118.555 121.24 117.307C119.933 116.82 118.51 116.741 117.158 117.079C115.806 117.416 114.589 118.156 113.666 119.199C107.85 125.038 102.034 130.876 96.065 136.58C92.9747 139.505 90.0456 142.709 85.4141 143.523C84.765 143.789 84.1913 144.21 83.7431 144.75C83.295 145.29 82.9861 145.932 82.8437 146.619C81.9044 155.843 80.3826 165.131 80.6727 174.34C81.0166 191.057 86.6719 207.237 96.8185 220.534C100.382 225.248 108.342 231.915 112.633 233.257C111.775 230.999 110.78 228.547 109.908 226.049C108.873 222.254 106.447 218.987 103.114 216.899C98.7891 214.314 95.4348 210.373 93.5719 205.689C91.8333 201.434 91.0574 197.045 93.2356 192.711C95.3012 188.741 98.1627 188.378 100.035 192.308C102.295 197.09 104.25 202.009 105.889 207.037C106.937 210.053 107.449 213.255 108.205 216.366L109.282 216.216C109.214 214.469 109.224 212.727 109.09 210.993C108.389 201.674 113.159 197.283 120.172 193.259C121.88 192.272 123.864 192.02 123.747 195.163C123.655 204.568 122.24 213.398 113.801 219.411C113.27 219.844 112.844 220.392 112.555 221.014C112.266 221.636 112.123 222.316 112.135 223.002C113.819 232.994 119.371 238.322 129.308 239.878C130.947 240.152 132.608 240.273 134.27 240.238C161.441 239.434 180.692 226.285 192.403 202.135C196.701 193.795 198.251 184.304 196.831 175.021C196.032 170.248 193.909 166.314 189.411 164.57C183.416 162.251 177.148 160.487 170.968 158.747C169.862 158.418 168.22 159.391 167.042 160.096C161.563 163.259 156.418 166.999 150.858 169.936C145.298 172.873 139.141 174.047 133.357 170.118C131.602 168.923 128.726 167.458 129.874 164.687C131.024 163.025 132.712 161.813 134.654 161.257C141.142 158.727 147.714 156.471 154.054 154.199C151.089 151.422 148.359 149.053 145.917 146.495C145.607 146.037 145.411 145.513 145.345 144.964C145.278 144.416 145.342 143.86 145.533 143.343C145.833 142.748 147.487 142.438 148.441 142.631C156.805 144.252 165.093 146.04 170.262 153.921C170.867 154.72 171.715 155.302 172.679 155.577C179.142 157.55 185.637 159.407 192.273 161.38C187.345 154.302 182.009 147.461 174.603 142.782C169.415 139.501 164.013 136.493 157.688 136.002C145.902 135.018 135.479 138.753 125.888 145.258C125.552 145.562 125.282 145.93 125.094 146.342C124.906 146.753 124.803 147.199 124.793 147.652C124.724 154.265 121.32 159.306 117.281 164.02C113.242 168.733 109.432 172.942 105.38 177.29C104.308 178.18 103.121 178.924 101.853 179.501C100.998 178.196 100.368 176.757 99.9891 175.244C99.4809 167.185 102.146 159.253 107.413 153.147C107.844 152.65 108.337 152.216 108.739 151.712C109.141 151.207 109.238 150.903 109.071 151.172C104.717 151.007 100.286 151.01 95.8878 150.598C95.2899 150.422 94.7417 150.108 94.288 149.68C93.8344 149.252 93.4882 148.723 93.2778 148.136C93.0533 147.447 94.0781 145.962 94.9481 145.41C98.0044 143.112 101.328 141.193 104.847 139.695C110.338 137.84 116.101 136.67 121.311 141.104C121.77 141.337 122.274 141.465 122.789 141.481C123.303 141.497 123.814 141.4 124.286 141.197C127.042 140.052 129.685 138.626 132.396 137.359C142.391 132.754 152.689 130.604 163.651 133.378C162.821 132.369 162.02 131.368 161.171 130.37C158.717 127.761 156.887 124.63 155.818 121.211C154.75 117.793 154.471 114.177 155.004 110.638C155.486 107.656 156.922 106.926 158.847 108.717C166.631 115.308 171.828 124.447 173.514 134.506C173.614 135.662 173.984 136.778 174.593 137.766C175.202 138.754 176.034 139.586 177.021 140.195C186.114 146.852 193.612 154.777 197.684 165.648C200.556 173.375 201.502 181.683 200.442 189.854C202.795 184.278 204.937 178.725 206.707 173.04C207.767 169.6 209.733 165.414 208.608 162.566C207.655 160.015 203.21 158.662 200.212 156.945C191.829 152.16 187.479 145.097 188.011 135.339C188.126 132.965 187.765 129.552 190.781 129.2C192.337 129.021 194.651 131.356 195.926 133.051C199.943 138.422 203.647 144.022 207.693 149.872C207.121 146.204 207.796 142.451 209.611 139.217C211.427 135.983 214.276 133.454 217.702 132.038C218.944 131.445 221.194 130.667 221.668 131.187C222.556 132.429 222.975 133.945 222.85 135.466C222.187 144.953 218.335 153.378 214.312 161.852C212.07 166.545 210.496 171.497 208.605 176.285C212.091 174.818 214.62 172.936 217.378 171.493C220.06 169.987 223.016 169.032 226.073 168.686C229.13 168.339 232.227 168.607 235.181 169.475C235.762 169.694 236.292 170.033 236.735 170.469C237.179 170.905 237.527 171.428 237.756 172.006C237.981 172.695 236.977 174.044 236.203 174.763C234.597 176.219 232.882 177.55 231.072 178.743C225.527 182.391 219.919 186.745 212.918 185.9C207.068 185.16 204.523 187.1 202.475 192.302C200.673 196.815 196.971 200.44 194.908 204.93C188.773 218.246 178.538 229.241 165.701 236.305C150.243 244.659 133.275 246.021 116.056 244.676C112.92 244.319 109.809 243.771 106.739 243.035C104.424 242.586 103.009 242.708 102.133 245.694C100.914 248.864 99.1236 251.781 96.8505 254.301C91.2823 260.74 82.6505 260.887 75.4226 263.894C73.2107 264.824 72.5206 263.114 73.4675 260.979ZM71.4894 206.085C67.4404 204.776 63.2025 203.998 58.2573 202.81C62.5288 211.581 74.6725 216.402 83.0409 213.183C83.5672 212.857 84.0302 212.438 84.4076 211.948C83.9636 211.493 83.4613 211.099 82.914 210.776C79.0312 209.198 75.3176 207.397 71.3965 206.139L71.4894 206.085ZM61.1139 182.581C64.5098 193.396 71.812 199.052 80.9283 204.034C77.3415 193.876 70.357 187.911 61.021 182.635L61.1139 182.581ZM61.484 107.95C60.919 107.212 60.1062 106.703 59.196 106.518C58.8764 106.479 58.1215 107.659 57.8221 108.427C55.5069 115.569 56.9667 122.515 59.3305 129.311C60.4949 132.657 62.0922 135.853 63.8836 140.028C69.0241 128.13 67.9938 117.81 61.4019 108.023L61.484 107.95ZM74.8863 75.4067C68.9224 68.6796 61.2418 65.4986 52.0046 64.3822C52.9228 66.5006 54.2578 68.4128 55.9298 70.0046C57.6019 71.5964 59.5768 72.8352 61.7366 73.6469C65.5344 75.2495 69.5424 76.3587 73.4713 77.5879C74.2489 77.7058 75.04 77.7011 75.8157 77.5739C75.5674 76.8047 75.1921 76.0822 74.7055 75.4366L74.8863 75.4067ZM82.7833 73.1295C84.224 67.9945 83.7021 62.5036 81.3194 57.7269C80.2601 59.9982 79.4696 62.386 78.9641 64.8417C78.8969 67.6465 79.1607 70.45 79.75 73.194C80.0419 74.4953 80.4246 75.7746 80.8955 77.0224C81.5901 75.7943 82.1619 74.5004 82.6025 73.1595L82.7833 73.1295ZM16.8761 65.0422C15.3142 67.8957 14.0758 70.9154 13.1841 74.045C12.8465 75.133 13.527 76.5261 13.7385 77.7931L17.0989 76.1506C23.118 70.9639 29.9978 66.0244 33.9942 58.235C34.5065 57.3993 34.8826 56.4872 35.1085 55.5328C35.1624 55.1544 33.7761 54.1687 33.6276 54.2545C27.9531 58.1508 20.4418 58.8658 16.6953 65.0722L16.8761 65.0422ZM26.2582 41.3188C19.9075 38.5111 13.0923 38.5017 6.2868 38.8092C5.52288 38.9658 4.78992 39.2465 4.117 39.6402C4.3396 40.5116 4.70159 41.3413 5.18891 42.0973C8.87227 46.4361 14.1135 49.1498 19.7765 49.6501C23.6735 49.8807 27.7037 49.6128 31.6409 49.8699C35.578 50.127 34.7323 48.7051 33.5716 46.0513C31.215 44.2683 28.7074 42.6947 26.0774 41.3488L26.2582 41.3188ZM63.1894 28.0833C59.6292 24.92 55.8843 21.9713 51.9747 19.2529C48.242 17.0839 44.3622 15.1795 40.364 13.5535C39.5873 13.3413 38.7854 13.2367 37.9806 13.2427L38.3421 15.713C42.0346 20.7378 47.1027 24.5846 52.932 26.7869C55.96 27.7425 58.8873 28.781 61.886 29.7288C62.3508 29.804 62.8237 29.8148 63.2912 29.7609C63.2671 29.2043 63.3798 28.3702 63.0457 28.0918L63.1894 28.0833ZM71.1671 31.0927C73.2433 29.0371 74.8944 26.592 76.0261 23.8968C77.9413 17.6066 75.5625 11.5135 74.0436 5.49437C73.1485 3.25773 71.5662 3.47665 70.7974 5.06158C69.0236 8.01269 67.8505 11.2865 67.3455 14.6947C67.4482 19.8048 67.9087 24.9019 68.7235 29.9485C68.7363 31.9008 69.857 32.4693 71.0234 31.1013L71.1671 31.0927ZM86.1629 50.1181C86.3026 50.36 86.5722 50.5268 86.7861 50.7258C86.7217 50.6141 86.7951 50.3981 86.755 50.3716C86.5638 50.2735 86.3659 50.1888 86.1629 50.1181V50.1181ZM104.927 64.0904C108.743 59.7051 111.356 54.402 112.508 48.6995C112.692 47.8928 112.806 47.0717 112.85 46.2452C112.92 44.8653 112.875 43.5018 112.935 42.1033L107.663 43.1376C105.908 46.0639 104.472 49.1714 103.382 52.4062C102.832 55.9989 102.66 59.6399 102.869 63.2696C102.933 63.8464 103.09 64.4089 103.335 64.9352C103.916 64.7613 104.457 64.4742 104.927 64.0904V64.0904ZM144.704 111.97C145.505 111.441 146.269 110.859 146.992 110.228C146.086 109.56 145.186 108.344 144.281 108.32C140.058 108.075 135.822 108.252 131.635 108.849C128.045 109.922 124.565 111.333 121.242 113.064L121.687 114.221C129.492 115.172 137.315 116.113 144.683 111.933L144.704 111.97ZM122.12 103.776C124.736 96.0716 125.279 87.8103 123.693 79.8231C123.217 78.7539 122.63 77.7374 121.942 76.7906C120.186 79.8927 118.589 83.0829 117.159 86.3488C115.044 92.0351 116.346 97.8073 117.325 103.493C117.69 105.54 118.291 107.524 118.789 109.544C120.079 107.731 121.194 105.8 122.12 103.776ZM59.2895 142.407C51.6759 137.635 42.8084 135.262 33.8379 135.595C31.7681 135.699 29.7343 136.079 27.6732 136.327C37.116 141.144 46.1821 146.725 57.0859 146.954C57.4151 147 57.75 146.984 58.0729 146.905C59.6875 146.271 61.2699 145.58 62.8631 144.909C61.7043 143.986 60.4971 143.126 59.2466 142.333L59.2895 142.407ZM114.636 214.638C116.657 212.484 118.226 209.946 119.25 207.174C120.274 204.401 120.731 201.451 120.595 198.496C120.599 198.246 119.199 197.665 118.732 197.885C117.065 198.608 115.614 199.752 114.521 201.204C113.428 202.657 112.731 204.369 112.498 206.173C112.286 209.104 112.272 212.045 112.456 214.979C113.466 214.842 114.3 214.956 114.69 214.731L114.636 214.638ZM149.369 159.509C144.831 160.913 140.38 162.64 135.894 164.262C135.165 164.564 134.457 164.914 133.776 165.312C134.224 166.12 134.822 166.836 135.538 167.42C137.751 168.546 140.22 169.073 142.698 168.948C145.176 168.823 147.577 168.051 149.662 166.707C155.041 163.8 160.248 160.595 165.597 157.507C159.798 155.398 154.614 157.87 149.369 159.509ZM151.386 145.545L150.791 146.831C154.656 150.652 159.034 153.259 164.692 152.895L165.215 151.7L151.386 145.545ZM116.781 142.008C111.176 140.407 106.087 142.229 100.45 144.689L98.6002 147.147C99.6847 147.438 100.873 148.166 101.859 147.944C106.949 146.767 111.998 145.39 117.047 144.013C117.486 143.795 117.873 143.487 118.184 143.108C117.719 142.732 117.308 142.15 116.781 142.008ZM116.642 149.53C108.949 155.336 102.983 162.973 103.507 174.304C110.043 167.181 117.053 161.522 120.633 153.055C121.217 151.207 121.629 149.308 121.865 147.383C120.031 147.855 118.262 148.552 116.599 149.456L116.642 149.53ZM158.202 112.016C157.481 120.718 161.203 127.251 170.674 134.434C168.567 125.961 164.248 118.199 158.159 111.942L158.202 112.016ZM215.746 151.425C217.413 146.592 218.726 141.617 220.108 136.677C220.171 135.881 220.11 135.079 219.925 134.302L218.033 134.799C212.639 138.881 209.972 143.869 210.908 150.422C211.265 152.97 211.783 155.498 212.236 158.04C213.598 155.943 214.773 153.729 215.746 151.425V151.425ZM193.45 134.853C192.932 134.374 192.385 133.927 191.812 133.516C191.502 134.086 191.28 134.699 191.153 135.335C191.014 141.741 192.574 147.489 198.007 151.496C200.55 153.327 203.233 154.928 206.536 157.089C204.159 148.646 199.65 140.955 193.444 134.757L193.45 134.853ZM210.349 183.166C216.655 183.966 221.856 181.137 226.793 177.765C229.078 176.446 231.362 175.127 233.646 173.809C234.021 173.53 234.357 173.203 234.645 172.835C234.166 172.54 233.655 172.303 233.121 172.127C228.583 171.053 223.808 171.813 219.832 174.243C216.266 176.302 212.891 178.648 209.462 180.9C208.968 181.335 208.53 181.83 208.158 182.373C208.856 182.692 209.59 182.926 210.343 183.07L210.349 183.166ZM104.206 211.283C102.332 206.237 100.478 201.181 98.5198 196.16C98.0539 195.366 97.4655 194.651 96.7764 194.041C96.1787 194.938 95.7292 195.926 95.4451 196.967C94.8432 203.516 98.2996 208.045 102.714 212.045L104.206 211.283ZM77.1474 230.725C76.6942 231.172 76.3581 231.724 76.1685 232.332C78.0694 234.038 79.8518 236.481 82.1118 237.136C86.648 238.234 91.2493 239.041 95.8876 239.552C90.827 234.089 83.8239 232.725 77.1102 230.747L77.1474 230.725ZM96.7074 239.599L96.3058 239.633L96.381 239.763C96.381 239.763 96.596 239.664 96.6703 239.621L96.7074 239.599ZM98.5684 245.396C91.5315 249.806 82.4548 250.383 78.0731 258.792C88.6606 258.087 96.4024 253.096 98.5313 245.417L98.5684 245.396Z" fill="black" fill-opacity="0.1"/>
</svg>
